<svg width="50" height="50" viewBox="0 0 50 50" fill="none" xmlns="http://www.w3.org/2000/svg">
<path d="M34.9312 29.3363C32.6322 29.3363 31.8736 31.0718 31.643 31.8776H37.7804C37.7229 31.4301 37.5428 30.6438 36.9693 30.0704C36.4806 29.584 35.797 29.3363 34.9312 29.3363ZM19.1542 32.5776H13.3406V37.4953H18.8366C19.8167 37.4709 21.031 37.1578 21.031 35.114C21.031 32.6486 19.3463 32.5776 19.1542 32.5776Z" fill="#DEFFEB" fill-opacity="0.7"/>
<path d="M45.3566 0H4.6925C3.64234 0.000271268 2.61994 0.33468 1.77537 0.954134C0.930808 1.57359 0.308568 2.44546 0 3.44175V46.6598C0.258355 47.4932 0.737047 48.2426 1.38625 48.8301C2.03545 49.4175 2.83142 49.8215 3.69132 50H46.3571C47.1921 49.8261 47.9672 49.4393 48.606 48.8778C49.2447 48.3163 49.7252 47.5994 50 46.7976V3.30397C49.6705 2.34096 49.0456 1.5045 48.2128 0.911947C47.38 0.319396 46.3813 0.000497743 45.3566 0ZM30.0956 21.1369C30.0956 20.9442 30.2541 20.7876 30.4476 20.7876H39.1869C39.379 20.7876 39.5381 20.9442 39.5381 21.1369V23.7262C39.5377 23.8186 39.5006 23.907 39.4348 23.9723C39.369 24.0376 39.2799 24.0745 39.1869 24.0748H30.4476C30.3544 24.0748 30.265 24.0381 30.199 23.9728C30.133 23.9074 30.0958 23.8187 30.0956 23.7262V21.1369ZM26.384 35.4989C26.384 38.8042 24.6221 40.3985 23.1414 41.1493C21.5281 41.9697 19.856 42.0337 19.3806 42.0337H8.28706C8.19382 42.033 8.10462 41.9959 8.03876 41.9304C7.97289 41.8649 7.93566 41.7763 7.93511 41.6837V20.6651C7.93511 20.4724 8.09496 20.3151 8.28706 20.3151H19.3091C23.2213 20.3151 25.652 22.5933 25.652 26.2626C25.652 28.5353 24.5366 29.6258 23.555 30.1449C24.1006 30.3332 24.5918 30.6506 24.986 31.0697C26.5242 32.6841 26.3924 35.384 26.384 35.4989ZM42.7225 35.1823C42.7119 35.2664 42.6706 35.3439 42.6064 35.3999C42.5422 35.4559 42.4596 35.4867 42.3741 35.4863H31.7643C31.8407 36.6408 32.3013 37.4737 33.1335 37.9657C33.8697 38.3992 34.6837 38.4465 34.9964 38.4465C35.0616 38.4465 35.1022 38.4438 35.1071 38.4424C36.325 38.4424 37.1894 38.1759 37.6991 37.6498C38.1878 37.1446 38.1745 36.5733 38.171 36.5489C38.171 36.4529 38.2032 36.3603 38.2719 36.2908C38.3046 36.2566 38.344 36.2294 38.3876 36.2109C38.4313 36.1923 38.4783 36.1828 38.5257 36.1829H42.2507C42.4456 36.1829 42.604 36.3395 42.604 36.5329C42.604 42.191 36.5164 42.4777 35.2922 42.4777C35.0966 42.4777 34.9851 42.4707 34.9851 42.4707H34.9816C32.2333 42.4707 30.083 41.6754 28.6079 40.1083C26.2963 37.6491 26.5074 34.2087 26.5179 34.064C26.5179 34.0021 26.5277 31.9632 27.566 29.8944C28.5413 27.9647 30.6173 25.6628 35.0062 25.6628C37.521 25.6628 39.4792 26.4297 40.8162 27.9411C43.2764 30.7252 42.7506 35.0013 42.7225 35.1823Z" fill="#DEFFEB" fill-opacity="0.7"/>
<path d="M20.2956 26.4839C20.2956 24.6684 19.1984 24.6475 19.1528 24.6475H13.3406V28.6376H18.7686C19.5755 28.6376 20.2956 28.4734 20.2956 26.4839Z" fill="#DEFFEB" fill-opacity="0.7"/>
</svg>
